# xmcd CD database file
#
# Track frame offsets:
#	150
#	18652
#	35477
#	53119
#	71543
#	86524
#	103839
#	122917
#	140189
#	162087
#	187824
#	198727
#	216527
#	233997
#	256907
#	279357
#	300962
#
# Disc length: 4347 seconds
#
# Revision: 2
# Processed by: cddbd v1.5.1PL0 Copyright (c) Steve Scherf et al.
# Submitted via: CDex 1.51
#
DISCID=f810f911
DTITLE=オムニパス - FM802 Shirley’s SATURDAY AMUSIC ISLANDS presents“T
DYEAR=2003
DGENRE=Vocal
TTITLE0=ピーボ・ブライソン/ホール・ニュー・ワールド(アラジンのテーマ)
TTITLE1=ジャネット・ケイ/イエス、アイム・レディ
TTITLE2=メイヤ/クレイジー
TTITLE3=ジャミロクワイ/コズミック・ガール
TTITLE4=ジェシカ・シンプソン/アイ・シンク・アイム・イン・ラヴ
TTITLE5=キャロル・キング/ナチュラル・ウーマン
TTITLE6=マンディ・ムーア/アイ・ワナ・ビィ・ウィズ・ユー
TTITLE7=メイシー・グレイ/スウィート・ベイビー(フィーチャリング・エリカ・バドゥ)
TTITLE8=ビリー・ジョエル/素顔のままで
TTITLE9=サヴェージ・ガーデン/トゥ・ザ・ムーン・アンド・バック
TTITLE10=クレモンティーヌ/アモール・フォウ[クレイジー・ラヴ]
TTITLE11=バングルス/胸いっぱいの愛
TTITLE12=ワイクリフ・ジョン/ツー・ロングス
TTITLE13=パフ・ジョンソン/フォーエヴァーモア
TTITLE14=ベイビーフェイス/クローズ・マイ・アイズ
TTITLE15=セリーヌ・ディオン/パワー・オブ・ラヴ
TTITLE16=ゴスペラーズ/永遠に
EXTD=YEAR: 2003
EXTT0=
EXTT1=
EXTT2=
EXTT3=
EXTT4=
EXTT5=
EXTT6=
EXTT7=
EXTT8=
EXTT9=
EXTT10=
EXTT11=
EXTT12=
EXTT13=
EXTT14=
EXTT15=
EXTT16=
PLAYORDER=
